# xmcd
# 
# Track frame offsets:
#     150
#     10915
#     26368
#     39932
#     56222
#     71582
#     87702
#     102987
#     118027
#     133676
#     148746
#     160232
#     172650
#     184339
#     200460
#     213949
#     235896
#     248637
#     263379
#     277167
# 
# Disc length: 3858
# 
# Revision: 1
# Processed by: cddbd v1.5.2PL0 Copyright (c) Steve Scherf et al.
# Submitted via: fre:ac v1.0.27
# 
DISCID=1d0f1014
DTITLE=Tom Astor - Best Of
DYEAR=2015
DGENRE=Country
TTITLE0=Hallo, guten Abend Deutschland
TTITLE1=Ich geh' gern vergessene Straßen [Radio Version]
TTITLE2=Strohblumen (Sunflower)
TTITLE3=Junger Adler [Version 2008]
TTITLE4=Jenseits der Zeit (O Waly, Waly)
TTITLE5=Wenn Du zwei Arme brauchst - die Dich umarmen
TTITLE6=Mein Eldorado
TTITLE7=Oh, Susanna
TTITLE8=Du bist der positivste Schock in meinem Leben
TTITLE9=I Need More Of You
TTITLE10=Ja, ihr könnt mich alle mal (unterstützen)
TTITLE11=Hab' ich heute schon gelebt
TTITLE12=Steh' immer wieder auf
TTITLE13=Wenn man kämpft kann man verlier'n
TTITLE14=Wenn es kein Morgen gibt
TTITLE15=Trucker Medley
TTITLE16=Wir werden nicht älter, wir werden nur noch besser
TTITLE17=Freunde für's Leben
TTITLE18=Boarding Time
TTITLE19=Hallo, guten Morgen Deutschland [Version 2008]
EXTD=
EXTT0=
EXTT1=
EXTT2=
EXTT3=
EXTT4=
EXTT5=
EXTT6=
EXTT7=
EXTT8=
EXTT9=
EXTT10=
EXTT11=
EXTT12=
EXTT13=
EXTT14=
EXTT15=
EXTT16=
EXTT17=
EXTT18=
EXTT19=
PLAYORDER=
